<svg width="1024" height="1024" viewBox="0 0 1024 1024" fill="none" xmlns="http://www.w3.org/2000/svg">
<path d="M365.526 749H214.5L426.265 149H602.735L777.819 645.07H624.076H399.178L365.526 749ZM434.473 528.039H587.961L547.742 401.402C545.553 394.997 542.817 387.137 539.534 377.821C536.798 367.923 533.789 357.733 530.505 347.253C527.769 336.191 525.034 325.128 522.297 314.065C519.561 303.003 516.826 293.396 514.09 285.244H508.344C506.155 296.307 502.872 308.825 498.494 322.799C494.664 336.773 490.56 350.747 486.183 364.72C482.352 378.694 478.795 390.921 475.512 401.402L434.473 528.039Z" fill="black"/>
<path d="M167 875.5L214.5 749H814.5L856 875.5H167Z" fill="black"/>
</svg>
