<svg width="680" height="884" viewBox="0 0 680 884" fill="none" xmlns="http://www.w3.org/2000/svg">
<path d="M54.8996 257.249C116.235 149.447 356.467 41.0195 468.916 0.28063C511.851 -5.98688 665.191 94.2934 677.458 144.433C687.272 184.546 666.213 232.18 655.991 250.982C538.226 303.629 509.807 233.223 508.785 191.44C491.611 198.961 464.827 182.039 453.582 172.637C433.955 300.495 332.955 401.402 284.909 435.873C498.358 430.859 604.877 548.688 631.456 608.229C539.453 833.861 254.241 879.822 143.836 884C229.707 833.86 281.842 771.185 297.176 746.115C-73.9056 705.376 -21.7702 392 54.8996 257.249Z" fill="url(#paint0_linear_2547_10290)"/>
<defs>
<linearGradient id="paint0_linear_2547_10290" x1="340" y1="0" x2="340" y2="884" gradientUnits="userSpaceOnUse">
<stop stop-color="#003EFB"/>
<stop offset="1" stop-color="#002FC0"/>
</linearGradient>
</defs>
</svg>
