<svg width="256" height="256" viewBox="0 0 256 256" fill="none" xmlns="http://www.w3.org/2000/svg">
<path d="M31.1663 156L29.5423 150.568H16.0463L14.4223 156H1.76625L15.8223 117.472H30.2143L44.2703 156H31.1663ZM18.6223 141.944H26.9663L22.9343 128.224H22.7103L18.6223 141.944ZM80.9042 129.288C80.9042 131.64 80.2695 133.768 79.0002 135.672C77.7309 137.576 75.8829 138.976 73.4562 139.872L82.0242 156H68.1362L61.3042 141.944H56.7122V156H44.3362V117.472H67.9122C70.6749 117.472 73.0269 118.013 74.9682 119.096C76.9469 120.141 78.4215 121.579 79.3922 123.408C80.4002 125.2 80.9042 127.16 80.9042 129.288ZM68.3042 129.792C68.3042 128.784 67.9682 127.944 67.2962 127.272C66.6242 126.6 65.8029 126.264 64.8322 126.264H56.7122V133.376H64.8322C65.8029 133.376 66.6242 133.04 67.2962 132.368C67.9682 131.659 68.3042 130.8 68.3042 129.792ZM100.706 116.8C106.418 116.8 110.935 118.237 114.258 121.112C117.58 123.949 119.242 128.019 119.242 133.32H107.426C107.426 131.08 106.828 129.307 105.634 128C104.476 126.693 102.815 126.04 100.65 126.04C98.1484 126.04 96.3004 126.824 95.1058 128.392C93.9484 129.96 93.3698 132.144 93.3698 134.944V138.528C93.3698 141.291 93.9484 143.475 95.1058 145.08C96.3004 146.648 98.1111 147.432 100.538 147.432C102.927 147.432 104.738 146.816 105.97 145.584C107.202 144.352 107.818 142.616 107.818 140.376H119.242C119.242 145.64 117.618 149.672 114.37 152.472C111.159 155.272 106.604 156.672 100.706 156.672C94.1351 156.672 89.1511 154.992 85.7538 151.632C82.3938 148.272 80.7138 143.307 80.7138 136.736C80.7138 130.165 82.3938 125.2 85.7538 121.84C89.1511 118.48 94.1351 116.8 100.706 116.8ZM147.308 156V141.384H133.7V156H121.324V117.472H133.7V131.528H147.308V117.472H159.684V156H147.308ZM163.932 156V117.472H176.308V156H163.932ZM191.01 156L177.346 117.472H190.562L198.29 143.232H198.514L206.298 117.472H218.954L205.346 156H191.01ZM219.524 117.472H252.844V126.712H231.9V132.032H249.82V140.88H231.9V146.76H253.236V156H219.524V117.472Z" fill="white"/>
<path d="M78.2535 87.168H86.8725V107.136H100.639V114H78.2535V87.168ZM113.13 94.032V114H104.511V94.032H95.6967V87.168H121.905V94.032H113.13ZM139.405 87.168H150.091L140.458 98.205L150.286 114H140.107L134.53 104.172L129.85 107.994V114H121.231V87.168H129.85V98.634L139.405 87.168ZM151.81 101.091H148.105L150.874 93.993H148.105V87.168H155.359V93.603L151.81 101.091ZM166.644 86.7C170.076 86.7 172.897 87.402 175.107 88.806C177.317 90.184 178.448 92.238 178.5 94.968V95.436H170.427V95.28C170.427 94.5 170.141 93.85 169.569 93.33C168.997 92.81 168.126 92.55 166.956 92.55C165.812 92.55 164.928 92.719 164.304 93.057C163.706 93.395 163.407 93.811 163.407 94.305C163.407 95.007 163.823 95.527 164.655 95.865C165.487 96.203 166.826 96.554 168.672 96.918C170.83 97.36 172.598 97.828 173.976 98.322C175.38 98.79 176.602 99.57 177.642 100.662C178.682 101.754 179.215 103.236 179.241 105.108C179.241 108.28 178.162 110.633 176.004 112.167C173.872 113.701 171.012 114.468 167.424 114.468C163.238 114.468 159.975 113.766 157.635 112.362C155.321 110.958 154.164 108.475 154.164 104.913H162.315C162.315 106.265 162.666 107.175 163.368 107.643C164.07 108.085 165.162 108.306 166.644 108.306C167.736 108.306 168.633 108.189 169.335 107.955C170.063 107.721 170.427 107.24 170.427 106.512C170.427 105.862 170.024 105.381 169.218 105.069C168.438 104.731 167.151 104.38 165.357 104.016C163.173 103.548 161.366 103.067 159.936 102.573C158.506 102.053 157.258 101.208 156.192 100.038C155.126 98.868 154.593 97.282 154.593 95.28C154.593 92.342 155.724 90.184 157.986 88.806C160.274 87.402 163.16 86.7 166.644 86.7Z" fill="white"/>
</svg>
